<?xml version="1.0" encoding="utf-8"?>
<svg id="logo" viewBox="0 0 1000 350" fill="none" xmlns="http://www.w3.org/2000/svg">
    <style type="text/css">
        #logo{
        animation: fill 2.0s ease forwards 3.0s;
        }

        #logo path:nth-child(1){
        stroke-dasharray: 510px;
        stroke-dashoffset: 510px;
        animation: line-anim 3.75s ease forwards;
        animation-iteration-count: infinite;
        }
        #logo path:nth-child(2){
        stroke-dasharray: 757px;
        stroke-dashoffset: 757px;
        animation: line-anim 3.75s ease forwards;
        animation-iteration-count: infinite;
        }
        #logo path:nth-child(3){
        stroke-dasharray: 843px;
        stroke-dashoffset: 843px;
        animation: line-anim 3.75s ease forwards;
        animation-iteration-count: infinite;
        }
        #logo path:nth-child(4){
        stroke-dasharray: 510px;
        stroke-dashoffset: 510px;
        animation: line-anim 3.75s ease forwards;
        animation-iteration-count: infinite;
        }
        #logo path:nth-child(5){
        stroke-dasharray: 333px;
        stroke-dashoffset: 333px;
        animation: line-anim 3.75s ease forwards;
        animation-iteration-count: infinite;
        }
        #logo path:nth-child(6){
        stroke-dasharray: 333px;
        stroke-dashoffset: 333px;
        animation: line-anim 3.75s ease forwards;
        animation-iteration-count: infinite;
        }
        #logo path:nth-child(7){
        stroke-dasharray: 510px;
        stroke-dashoffset: 510px;
        animation: line-anim 3.75s ease forwards;
        animation-iteration-count: infinite;
        }
        #logo path:nth-child(8){
        stroke-dasharray: 893px;
        stroke-dashoffset: 893px;
        animation: line-anim 3.75s ease forwards;
        animation-iteration-count: infinite;
        }
        #logo path:nth-child(9){
        stroke-dasharray: 358px;
        stroke-dashoffset: 358px;
        animation: line-anim 3.75s ease forwards;
        animation-iteration-count: infinite;
        }
        #logo path:nth-child(10){
        stroke-dasharray: 318px;
        stroke-dashoffset: 318px;
        animation: line-anim 3.75s ease forwards;
        animation-iteration-count: infinite;
        }

        @keyframes line-anim{
        0% {
        fill: #ee6055;
        }
        25% {
        fill: #60d394;
        }
        50% {
        fill: #aaf683;
        }
        75% {
        fill: #ffd97d;
        }
        100% {
        fill: #ff9b85;
        }
        }

    </style>
    <g>
        <path d="M79.0364 199.856C79.4204 199.472 79.9004 199.472 80.4764 199.856C81.0524 200.24 81.2444 200.816 81.0524 201.584C77.5964 206.576 73.7564 210.608 69.5324 213.68C65.3084 216.56 61.2764 218 57.4364 218C53.0204 218 50.1404 214.928 48.7964 208.784C47.6444 202.448 48.3164 194.96 50.8124 186.32C45.6284 194.576 39.9644 201.68 33.8204 207.632C27.8684 213.392 21.5324 216.848 14.8124 218C10.2044 218 6.65238 215.888 4.15638 211.664C1.66038 207.44 0.412384 202.544 0.412384 196.976C0.412384 190.64 1.94838 184.4 5.02038 178.256C8.09238 171.92 12.1244 166.256 17.1164 161.264C22.3004 156.272 27.9644 152.24 34.1084 149.168C40.4444 145.904 46.7804 144.272 53.1164 144.272C59.8364 144.272 65.1164 145.904 68.9564 149.168C70.8764 147.824 73.2764 146.672 76.1564 145.712C79.2284 144.752 81.9164 144.272 84.2204 144.272C84.9884 144.272 85.3724 144.752 85.3724 145.712C80.9564 151.088 77.1164 157.04 73.8524 163.568C70.7804 169.904 68.3804 176.048 66.6524 182C64.9244 187.76 63.8684 192.944 63.4844 197.552C63.1004 202.16 63.4844 205.328 64.6364 207.056C65.5964 208.208 67.2284 208.592 69.5324 208.208C71.8364 207.632 75.0044 204.848 79.0364 199.856ZM23.7404 207.344C26.0444 207.344 28.8284 205.904 32.0924 203.024C35.5484 200.144 39.1004 196.304 42.7484 191.504C46.3964 186.704 49.9484 181.328 53.4044 175.376C57.0524 169.424 60.2204 163.376 62.9084 157.232C62.1404 154.736 60.3164 152.72 57.4364 151.184C54.7484 149.648 51.5804 148.88 47.9324 148.88C43.5164 148.88 39.3884 150.032 35.5484 152.336C31.7084 154.448 28.3484 157.52 25.4684 161.552C22.7804 165.392 20.5724 170.096 18.8444 175.664C17.3084 181.04 16.5404 186.992 16.5404 193.52C16.5404 197.744 17.2124 201.104 18.5564 203.6C20.0924 206.096 21.8204 207.344 23.7404 207.344Z"
              stroke="black" stroke-width="3"></path>
        <path d="M197.447 157.52C197.447 153.488 196.007 151.472 193.127 151.472C187.367 151.472 180.551 156.848 172.679 167.6C164.807 178.16 157.511 193.328 150.791 213.104C150.407 214.256 148.775 215.408 145.895 216.56C143.207 217.52 140.615 218 138.119 218C135.815 218 134.951 217.136 135.527 215.408C136.679 211.952 138.215 207.632 140.135 202.448C142.247 197.264 144.167 191.984 145.895 186.608C147.815 181.04 149.447 175.856 150.791 171.056C152.135 166.064 152.807 162.224 152.807 159.536C152.807 154.352 151.175 151.76 147.911 151.76C142.919 151.76 136.583 156.944 128.903 167.312C121.415 177.488 114.119 192.752 107.015 213.104C106.631 214.256 105.095 215.408 102.407 216.56C99.7191 217.52 97.3191 218 95.2071 218C94.2471 218 93.4791 217.808 92.9031 217.424C92.3271 217.04 92.2311 216.368 92.6151 215.408C94.1511 211.184 95.7831 206.576 97.5111 201.584C99.2391 196.4 100.967 191.216 102.695 186.032C104.423 180.848 105.959 175.76 107.303 170.768C108.839 165.776 110.183 161.072 111.335 156.656C111.911 153.2 111.335 151.472 109.607 151.472C108.071 151.472 106.247 152.528 104.135 154.64C102.023 156.752 99.9111 159.248 97.7991 162.128C97.2231 162.512 96.6471 162.512 96.0711 162.128C95.4951 161.552 95.3991 160.976 95.7831 160.4C98.6631 155.984 102.119 152.24 106.151 149.168C110.183 145.904 114.503 144.272 119.111 144.272C122.183 144.272 124.199 145.232 125.159 147.152C126.311 149.072 126.599 151.376 126.023 154.064C125.255 158.288 124.487 161.84 123.719 164.72C122.951 167.6 121.895 170.864 120.551 174.512C125.543 165.68 131.015 158.48 136.967 152.912C143.111 147.152 149.639 144.272 156.551 144.272C160.007 144.272 162.599 145.232 164.327 147.152C166.247 149.072 167.207 151.376 167.207 154.064C167.207 161.552 165.863 169.136 163.175 176.816C169.319 166.256 175.271 158.192 181.031 152.624C186.983 147.056 194.087 144.272 202.343 144.272C206.183 144.272 208.871 145.328 210.407 147.44C212.135 149.36 212.999 151.376 212.999 153.488C212.999 156.752 212.231 160.4 210.695 164.432C209.351 168.272 207.719 172.4 205.799 176.816C204.071 181.04 202.439 185.36 200.903 189.776C199.559 194 198.887 198.128 198.887 202.16C198.887 206.96 200.423 209.36 203.495 209.36C206.567 209.36 210.695 206.192 215.879 199.856C216.455 199.472 216.935 199.568 217.319 200.144C217.895 200.72 217.991 201.392 217.607 202.16C213.767 206.96 209.831 210.8 205.799 213.68C201.767 216.56 197.831 218 193.991 218C187.655 218 184.487 214.352 184.487 207.056C184.487 202.448 185.159 197.84 186.503 193.232C187.847 188.432 189.287 183.92 190.823 179.696C192.551 175.28 194.087 171.152 195.431 167.312C196.775 163.472 197.447 160.208 197.447 157.52Z"
              stroke="black" stroke-width="3"></path>
        <path d="M370.222 0.271973C373.87 0.271973 376.942 1.13597 379.438 2.86397C381.934 4.39998 383.854 6.51198 385.198 9.19998C386.542 11.888 387.31 14.96 387.502 18.416C387.694 21.68 387.406 25.136 386.638 28.784C385.486 29.552 384.622 29.456 384.046 28.496C383.47 24.656 381.454 21.392 377.998 18.704C374.542 15.824 369.454 14.384 362.734 14.384C351.982 14.384 341.998 17.072 332.782 22.448C323.566 27.824 314.83 36.56 306.574 48.656C298.51 60.56 290.734 76.112 283.246 95.312C275.95 114.32 268.75 137.552 261.646 165.008C262.99 162.896 264.814 160.688 267.118 158.384C269.614 155.888 272.398 153.584 275.47 151.472C278.542 149.36 281.71 147.632 284.974 146.288C288.43 144.944 291.79 144.272 295.054 144.272C299.086 144.272 302.35 146.096 304.846 149.744C307.342 153.392 308.59 157.712 308.59 162.704C308.59 170 306.766 177.008 303.118 183.728C299.47 190.256 294.862 196.112 289.294 201.296C283.726 206.288 277.678 210.32 271.15 213.392C264.622 216.464 258.478 218 252.718 218C247.918 218 244.558 216.848 242.638 214.544C240.718 212.24 239.758 208.976 239.758 204.752C239.758 199.376 240.43 193.04 241.774 185.744C243.31 178.256 245.326 170.384 247.822 162.128C250.318 153.68 253.294 144.944 256.75 135.92C260.398 126.704 264.238 117.68 268.27 108.848C284.59 73.712 301.102 46.832 317.806 28.208C334.702 9.58397 352.174 0.271973 370.222 0.271973ZM285.262 153.776C282.382 153.776 279.31 154.736 276.046 156.656C272.782 158.384 269.71 161.168 266.83 165.008C263.95 168.656 261.454 173.264 259.342 178.832C257.422 184.4 256.174 190.832 255.598 198.128C255.214 202.352 255.694 205.328 257.038 207.056C258.574 208.784 260.782 209.648 263.662 209.648C267.31 209.648 270.958 208.496 274.606 206.192C278.254 203.696 281.518 200.528 284.398 196.688C287.47 192.656 289.87 188.24 291.598 183.44C293.518 178.64 294.478 173.84 294.478 169.04C294.478 163.472 293.614 159.536 291.886 157.232C290.158 154.928 287.95 153.776 285.262 153.776Z"
              stroke="black" stroke-width="3"></path>
        <path d="M398.255 199.856C398.639 199.472 399.119 199.472 399.695 199.856C400.271 200.24 400.463 200.816 400.271 201.584C396.815 206.576 392.975 210.608 388.751 213.68C384.527 216.56 380.495 218 376.655 218C372.239 218 369.359 214.928 368.015 208.784C366.863 202.448 367.535 194.96 370.031 186.32C364.847 194.576 359.183 201.68 353.039 207.632C347.087 213.392 340.751 216.848 334.031 218C329.423 218 325.871 215.888 323.375 211.664C320.879 207.44 319.631 202.544 319.631 196.976C319.631 190.64 321.167 184.4 324.239 178.256C327.311 171.92 331.343 166.256 336.335 161.264C341.519 156.272 347.183 152.24 353.327 149.168C359.663 145.904 365.999 144.272 372.335 144.272C379.055 144.272 384.335 145.904 388.175 149.168C390.095 147.824 392.495 146.672 395.375 145.712C398.447 144.752 401.135 144.272 403.439 144.272C404.207 144.272 404.591 144.752 404.591 145.712C400.175 151.088 396.335 157.04 393.071 163.568C389.999 169.904 387.599 176.048 385.871 182C384.143 187.76 383.087 192.944 382.703 197.552C382.319 202.16 382.703 205.328 383.855 207.056C384.815 208.208 386.447 208.592 388.751 208.208C391.055 207.632 394.223 204.848 398.255 199.856ZM342.959 207.344C345.263 207.344 348.047 205.904 351.311 203.024C354.767 200.144 358.319 196.304 361.967 191.504C365.615 186.704 369.167 181.328 372.623 175.376C376.271 169.424 379.439 163.376 382.127 157.232C381.359 154.736 379.535 152.72 376.655 151.184C373.967 149.648 370.799 148.88 367.151 148.88C362.735 148.88 358.607 150.032 354.767 152.336C350.927 154.448 347.567 157.52 344.687 161.552C341.999 165.392 339.791 170.096 338.063 175.664C336.527 181.04 335.759 186.992 335.759 193.52C335.759 197.744 336.431 201.104 337.775 203.6C339.311 206.096 341.039 207.344 342.959 207.344Z"
              stroke="black" stroke-width="3"></path>
        <path d="M449.562 144.272C453.786 144.272 457.146 144.848 459.642 146C462.33 147.152 463.674 148.592 463.674 150.32C463.674 152.432 463.098 154.832 461.946 157.52C460.986 160.208 460.026 162.416 459.066 164.144C458.682 164.528 458.202 164.624 457.626 164.432C457.05 164.048 456.762 163.472 456.762 162.704C457.338 161.36 457.626 159.44 457.626 156.944C457.626 154.256 456.858 152.048 455.322 150.32C453.978 148.592 452.058 147.728 449.562 147.728C446.298 147.728 443.61 148.784 441.498 150.896C439.578 152.816 438.618 155.6 438.618 159.248C438.618 162.32 439.386 165.296 440.922 168.176C442.65 170.864 444.474 173.648 446.394 176.528C448.506 179.216 450.426 182.192 452.154 185.456C453.882 188.528 454.746 192.08 454.746 196.112C454.746 203.024 451.962 208.4 446.394 212.24C440.826 216.08 433.53 218 424.506 218C417.978 218 412.794 216.944 408.954 214.832C405.306 212.72 403.482 210.416 403.482 207.92C403.482 207.152 403.77 206.096 404.346 204.752C404.922 203.408 405.69 201.968 406.65 200.432C407.61 198.896 408.666 197.36 409.818 195.824C410.97 194.288 412.218 193.04 413.562 192.08C414.138 191.696 414.618 191.792 415.002 192.368C415.578 192.944 415.674 193.52 415.29 194.096C414.138 195.248 413.274 196.496 412.698 197.84C412.122 198.992 411.834 200.624 411.834 202.736C411.834 206.192 412.986 209.072 415.29 211.376C417.594 213.488 420.57 214.544 424.218 214.544C429.21 214.544 433.05 213.2 435.738 210.512C438.618 207.632 440.058 204.176 440.058 200.144C440.058 196.496 439.194 193.136 437.466 190.064C435.93 186.8 434.202 183.728 432.282 180.848C430.362 177.776 428.538 174.704 426.81 171.632C425.274 168.56 424.506 165.296 424.506 161.84C424.506 156.848 426.618 152.72 430.842 149.456C435.066 146 441.306 144.272 449.562 144.272Z"
              stroke="black" stroke-width="3"></path>
        <path d="M508.906 144.272C513.13 144.272 516.49 144.848 518.986 146C521.674 147.152 523.018 148.592 523.018 150.32C523.018 152.432 522.442 154.832 521.29 157.52C520.33 160.208 519.37 162.416 518.41 164.144C518.026 164.528 517.546 164.624 516.97 164.432C516.394 164.048 516.106 163.472 516.106 162.704C516.682 161.36 516.97 159.44 516.97 156.944C516.97 154.256 516.202 152.048 514.666 150.32C513.322 148.592 511.402 147.728 508.906 147.728C505.642 147.728 502.954 148.784 500.842 150.896C498.922 152.816 497.962 155.6 497.962 159.248C497.962 162.32 498.73 165.296 500.266 168.176C501.994 170.864 503.818 173.648 505.738 176.528C507.85 179.216 509.77 182.192 511.498 185.456C513.226 188.528 514.09 192.08 514.09 196.112C514.09 203.024 511.306 208.4 505.738 212.24C500.17 216.08 492.874 218 483.85 218C477.322 218 472.138 216.944 468.298 214.832C464.65 212.72 462.826 210.416 462.826 207.92C462.826 207.152 463.114 206.096 463.69 204.752C464.266 203.408 465.034 201.968 465.994 200.432C466.954 198.896 468.01 197.36 469.162 195.824C470.314 194.288 471.562 193.04 472.906 192.08C473.482 191.696 473.962 191.792 474.346 192.368C474.922 192.944 475.018 193.52 474.634 194.096C473.482 195.248 472.618 196.496 472.042 197.84C471.466 198.992 471.178 200.624 471.178 202.736C471.178 206.192 472.33 209.072 474.634 211.376C476.938 213.488 479.914 214.544 483.562 214.544C488.554 214.544 492.394 213.2 495.082 210.512C497.962 207.632 499.402 204.176 499.402 200.144C499.402 196.496 498.538 193.136 496.81 190.064C495.274 186.8 493.546 183.728 491.626 180.848C489.706 177.776 487.882 174.704 486.154 171.632C484.618 168.56 483.85 165.296 483.85 161.84C483.85 156.848 485.962 152.72 490.186 149.456C494.41 146 500.65 144.272 508.906 144.272Z"
              stroke="black" stroke-width="3"></path>
        <path d="M611.161 199.856C611.545 199.472 612.025 199.472 612.601 199.856C613.177 200.24 613.369 200.816 613.177 201.584C609.721 206.576 605.881 210.608 601.657 213.68C597.433 216.56 593.401 218 589.561 218C585.145 218 582.265 214.928 580.921 208.784C579.769 202.448 580.441 194.96 582.937 186.32C577.753 194.576 572.089 201.68 565.945 207.632C559.993 213.392 553.657 216.848 546.937 218C542.329 218 538.777 215.888 536.281 211.664C533.785 207.44 532.537 202.544 532.537 196.976C532.537 190.64 534.073 184.4 537.145 178.256C540.217 171.92 544.249 166.256 549.241 161.264C554.425 156.272 560.089 152.24 566.233 149.168C572.569 145.904 578.905 144.272 585.241 144.272C591.961 144.272 597.241 145.904 601.081 149.168C603.001 147.824 605.401 146.672 608.281 145.712C611.353 144.752 614.041 144.272 616.345 144.272C617.113 144.272 617.497 144.752 617.497 145.712C613.081 151.088 609.241 157.04 605.977 163.568C602.905 169.904 600.505 176.048 598.777 182C597.049 187.76 595.993 192.944 595.609 197.552C595.225 202.16 595.609 205.328 596.761 207.056C597.721 208.208 599.353 208.592 601.657 208.208C603.961 207.632 607.129 204.848 611.161 199.856ZM555.865 207.344C558.169 207.344 560.953 205.904 564.217 203.024C567.673 200.144 571.225 196.304 574.873 191.504C578.521 186.704 582.073 181.328 585.529 175.376C589.177 169.424 592.345 163.376 595.033 157.232C594.265 154.736 592.441 152.72 589.561 151.184C586.873 149.648 583.705 148.88 580.057 148.88C575.641 148.88 571.513 150.032 567.673 152.336C563.833 154.448 560.473 157.52 557.593 161.552C554.905 165.392 552.697 170.096 550.969 175.664C549.433 181.04 548.665 186.992 548.665 193.52C548.665 197.744 549.337 201.104 550.681 203.6C552.217 206.096 553.945 207.344 555.865 207.344Z"
              stroke="black" stroke-width="3"></path>
        <path d="M795.812 0.271973C798.692 0.271973 800.996 1.03997 802.724 2.57598C804.644 4.11198 805.988 6.12798 806.756 8.62397C807.524 11.12 807.716 14 807.332 17.264C806.948 20.336 805.988 23.408 804.452 26.48C804.068 26.864 803.588 27.056 803.012 27.056C802.436 26.864 802.052 26.384 801.86 25.616C802.244 22.736 801.476 20.624 799.556 19.28C797.636 17.744 794.948 16.976 791.492 16.976C781.124 16.976 771.14 20.432 761.54 27.344C751.94 34.256 742.82 44.912 734.18 59.312C725.732 73.52 717.86 91.664 710.564 113.744C703.46 135.632 697.028 161.744 691.268 192.08C690.308 196.304 690.212 199.952 690.98 203.024C691.748 205.904 693.188 207.344 695.3 207.344C697.412 207.344 699.428 206.48 701.348 204.752C703.268 203.024 704.996 200.816 706.532 198.128C706.916 197.744 707.396 197.744 707.972 198.128C708.74 198.512 709.028 199.088 708.836 199.856C707.876 201.776 706.436 203.792 704.516 205.904C702.788 208.016 700.772 210.032 698.468 211.952C696.356 213.68 694.052 215.12 691.556 216.272C689.252 217.424 687.14 218 685.22 218C680.996 218 678.02 216.464 676.292 213.392C674.564 210.32 673.892 206.864 674.276 203.024C674.66 199.76 675.14 196.688 675.716 193.808C676.292 190.928 676.964 187.856 677.732 184.592C673.892 192.848 668.516 200.048 661.604 206.192C654.692 212.144 647.876 216.08 641.156 218C636.74 218 633.188 216.368 630.5 213.104C627.812 209.84 626.468 205.616 626.468 200.432C626.468 192.944 627.812 185.84 630.5 179.12C633.188 172.208 636.836 166.16 641.444 160.976C646.052 155.792 651.524 151.664 657.86 148.592C664.196 145.52 671.012 143.984 678.308 143.984C682.34 143.984 685.892 144.656 688.964 146C692.42 135.632 696.548 124.88 701.348 113.744C706.148 102.416 711.428 91.376 717.188 80.624C722.948 69.872 728.996 59.6 735.332 49.808C741.86 40.016 748.484 31.472 755.204 24.176C761.924 16.88 768.74 11.12 775.652 6.89597C782.564 2.47997 789.284 0.271973 795.812 0.271973ZM650.372 206.768C652.484 206.768 654.98 205.712 657.86 203.6C660.74 201.296 663.716 198.32 666.788 194.672C669.86 190.832 672.74 186.512 675.428 181.712C678.116 176.72 680.42 171.44 682.34 165.872C683.108 164.144 683.78 162.416 684.356 160.688C684.932 158.768 685.412 156.944 685.796 155.216C685.028 152.912 683.492 151.28 681.188 150.32C679.076 149.168 676.676 148.592 673.988 148.592C669.956 148.592 666.02 149.84 662.18 152.336C658.34 154.64 654.98 157.904 652.1 162.128C649.22 166.352 646.82 171.344 644.9 177.104C643.172 182.864 642.308 189.2 642.308 196.112C642.308 199.184 642.98 201.776 644.324 203.888C645.86 205.808 647.876 206.768 650.372 206.768Z"
              stroke="black" stroke-width="3"></path>
        <path d="M760.786 144.272C767.506 144.272 772.498 146.288 775.762 150.32C779.026 154.352 780.658 159.056 780.658 164.432C780.658 171.92 779.122 178.928 776.05 185.456C773.17 191.792 769.522 197.456 765.106 202.448C760.882 207.248 756.274 211.088 751.282 213.968C746.29 216.656 741.778 218 737.746 218C731.218 218 726.226 216.08 722.77 212.24C719.506 208.208 717.874 203.12 717.874 196.976C717.874 191.408 719.026 185.552 721.33 179.408C723.826 173.264 726.994 167.6 730.834 162.416C734.866 157.232 739.474 152.912 744.658 149.456C749.842 146 755.218 144.272 760.786 144.272ZM744.946 209.072C750.898 209.072 755.89 206 759.922 199.856C764.146 193.52 766.258 184.88 766.258 173.936C766.258 168.176 765.106 163.376 762.802 159.536C760.498 155.696 757.138 153.776 752.722 153.776C746.578 153.776 741.586 156.752 737.746 162.704C733.906 168.656 731.986 177.392 731.986 188.912C731.986 195.632 733.138 200.72 735.442 204.176C737.938 207.44 741.106 209.072 744.946 209.072Z"
              stroke="black" stroke-width="3"></path>
        <path d="M822.652 152.624C822.652 155.504 822.364 158.768 821.788 162.416C821.212 166.064 820.444 169.808 819.484 173.648C823.324 164.432 827.548 157.232 832.156 152.048C836.764 146.864 841.756 144.272 847.132 144.272C850.012 144.272 852.22 144.944 853.756 146.288C855.292 147.632 856.06 149.36 856.06 151.472C856.06 153.392 855.292 155.888 853.756 158.96C852.412 162.032 851.26 164.144 850.3 165.296C849.916 165.488 849.532 165.488 849.148 165.296C848.764 164.912 848.572 164.528 848.572 164.144C848.572 162.8 847.996 161.648 846.844 160.688C845.884 159.728 844.348 159.248 842.236 159.248C835.516 159.248 829.372 163.856 823.804 173.072C818.428 182.096 813.436 195.152 808.828 212.24C808.636 213.2 807.964 214.064 806.812 214.832C805.66 215.408 804.316 215.984 802.78 216.56C801.436 216.944 799.996 217.328 798.46 217.712C796.924 217.904 795.58 218 794.428 218C792.316 218 791.74 216.848 792.7 214.544C794.428 210.512 796.06 206.192 797.596 201.584C799.324 196.784 800.86 191.984 802.204 187.184C803.548 182.384 804.7 177.776 805.66 173.36C806.62 168.752 807.388 164.528 807.964 160.688C808.348 157.808 808.444 155.6 808.252 154.064C808.252 152.528 807.484 151.76 805.948 151.76C804.028 151.76 802.012 152.624 799.9 154.352C797.98 155.888 796.156 157.904 794.428 160.4C793.66 160.976 792.892 161.072 792.124 160.688C791.548 160.112 791.452 159.44 791.836 158.672C792.988 157.136 794.332 155.6 795.868 154.064C797.596 152.336 799.42 150.8 801.34 149.456C803.452 147.92 805.564 146.672 807.676 145.712C809.98 144.752 812.284 144.272 814.588 144.272C817.66 144.272 819.772 145.04 820.924 146.576C822.076 147.92 822.652 149.936 822.652 152.624Z"
              stroke="black" stroke-width="3"></path>
    </g>
</svg>