<?xml version="1.0" encoding="utf-8"?>
<!-- Generator: Adobe Illustrator 19.0.0, SVG Export Plug-In . SVG Version: 6.00 Build 0)  -->
<svg version="1.1" id="Layer_1" xmlns="http://www.w3.org/2000/svg" xmlns:xlink="http://www.w3.org/1999/xlink" x="0px" y="0px"
	 viewBox="0 0 450.1 146.7" style="enable-background:new 0 0 450.1 146.7;" xml:space="preserve">
<style type="text/css">
	.st0{fill:#FEFEFE;}
	.st1{fill:#FEFEFE;}
	.st2{fill:#9E242E;}
	.st3{fill:#FF912E;}
	.st4{fill:#F41CB2;}
	.st5{fill:#F25511;}
</style>
<g>
	<path class="st0" d="M422.8,61.8c6.7-2.3,14.2-3.8,21.1-1.5c4,1.4,6.1,5.6,6.1,9.6c0.1,8.3,0.2,16.5-0.1,24.8c-2.4,0-4.8,0-7.1,0
		c-0.3-1.3-0.6-2.6-0.8-3.9c-4.5,3.5-10.4,6-16.1,3.9c-6.5-2.6-7.3-12.3-2.4-16.7c4.9-4.5,12-4.6,18.1-6c-0.4-2.1-0.7-4.8-3.2-5.4
		c-4.9-1.5-10,0.8-14.7,2.1C423.4,66.4,423.1,64.1,422.8,61.8 M430.7,81c-2.3,1.8-2.4,6.3,0.6,7.5c3.6,1.4,7.2-1.1,10-3.1
		c0-2.7,0-5.4,0-8.1C437.7,78,433.6,78.4,430.7,81"/>
	<path class="st0" d="M236.7,45.3c4-0.3,8-0.3,12-0.2c4.8,12.1,7.8,24.8,12.9,36.7c4.2-12.2,8.1-24.4,12.3-36.6c4-0.1,8-0.1,12,0
		c1.2,16.5,2.9,33.1,3.6,49.6c-3.1,0-6.2,0-9.2,0c-1.1-11.8-1.6-23.7-2.8-35.5c-4.8,11.6-8.1,23.7-12.4,35.5c-2.9,0.1-5.8,0.1-8.7,0
		c-4.2-11.8-7.5-23.8-12.4-35.3c-1,11.8-1.5,23.6-2.6,35.3c-2.8,0-5.5,0-8.3,0C233.8,78.2,235.5,61.8,236.7,45.3"/>
	<path class="st0" d="M373.8,49c2.8-0.6,5.6-1,8.4-1.2c0.1,4,0.1,8,0.1,12c2.3,0.1,4.7,0.2,7,0.2c0.4,2.3,0.8,4.6,1.2,6.9
		c-2.7,0.1-5.4,0.2-8.1,0.3c0.1,6-0.4,12.1,0.2,18.2c0.9,2.9,4.7,2.1,7,2.6c0.5,2.3,0.8,4.6,1,7c-4.4,0.4-9.4,1.1-13.3-1.5
		c-2.6-1.7-3.4-4.9-3.5-7.9c-0.3-6.1,0.1-12.3-0.2-18.4c-1.6-0.2-3.2-0.3-4.8-0.5c0.1-2.2,0.1-4.4,0.2-6.6c1.6-0.1,3.1-0.3,4.7-0.4
		C373.6,56.1,373.7,52.6,373.8,49"/>
	<path class="st0" d="M294.7,60.7c3-0.6,6-0.9,9-1.1c2.7,8,5.1,16.1,7.9,24c2.9-7.7,5.1-15.7,7.6-23.5c2.9-0.2,5.8-0.3,8.6-0.2
		c-3.2,10.6-7.4,20.8-11,31.3c-1.9,4.8-3.1,10.3-7,13.9c-3.2,2.9-7.9,3.1-12,2.3c-0.4-2.3-0.8-4.6-1.1-6.9c2,0,4,0.1,6-0.3
		c2.7-0.9,5-4.2,3.8-7C302.7,82.4,298.4,71.6,294.7,60.7"/>
	<path class="st0" d="M333.5,59.9c2.4,0,4.8,0.1,7.3,0.1c0.3,1.5,0.6,3,1,4.5c3.7-3.1,8.2-6,13.3-5.2c4.4,0.2,8,4.2,8,8.5
		c0.2,8.9,0.1,17.9,0.1,26.9c-2.8,0.1-5.5,0.1-8.3,0.1c-0.8-8.1,0.2-16.3-0.4-24.4c-0.4-3.3-4.5-4.2-7.1-2.9
		c-2.2,1.1-5.2,2.6-5.1,5.5c-0.2,7.2,0.1,14.4,0,21.7c-2.9,0.1-5.8,0-8.8,0C333.5,83.1,333.5,71.5,333.5,59.9"/>
	<path class="st0" d="M397.1,59.9c2.5,0,4.9,0,7.4,0c0.3,2,0.6,4,1,6.1c3.1-3.2,6.4-6.5,11.1-6.9c0.7,2.8,1.2,5.6,1.3,8.5
		c-4.6,1-9.9,3-11.9,7.5c-0.4,6.5,0.1,13-0.2,19.6c-2.9,0-5.8,0-8.7-0.1C397.2,83.1,397.1,71.5,397.1,59.9"/>
	<path class="st1" d="M44.7,13.1C49,8.1,53.5,2.7,60,0.6c7.3-1.9,13.4,3.8,18,8.7c12,13.7,20.7,29.8,28.8,46
		c4.4-9.8,9.8-19.2,15.5-28.3c5.4-8.3,11-16.7,18.8-23c3.6-2.8,8.6-5.4,13.1-3.1c6.3,3.4,11.2,8.9,15.7,14.4c9.6,12.3,17,26,23.8,40
		c8.5,18,15.8,36.8,18.9,56.5c0.9,9.1,1.7,19.4-3.8,27.3c-4.3,6.2-12.4,8.4-19.5,7.2c-6.3-2.2-11.7-6.3-15.8-11.5
		c-9.7-12-15.5-26.5-20.8-40.9c-0.8-2.5-1.7-5-2.6-7.5c-0.6,2.5-1.3,5-2.1,7.5c-5.5,14.5-11.3,29.3-21.3,41.4
		c-4,4.9-9.3,8.7-15.3,10.9c-8.6,1.8-17-2.7-22.6-9C77.7,125.4,71.6,110,66,95.1c-1.1-3.1-2.2-6.1-3-9.3c-0.9,3.2-2,6.3-3.1,9.4
		c-5,13.8-10.8,27.6-19.9,39.2c-5,6-11.5,11.8-19.6,12.2c-7.5,0.6-14.8-4.2-17.6-11c-4.1-9.5-2.9-20.2-1.1-30.1
		c3.9-18.9,11.1-37,19.6-54.2C28,37.9,35.4,24.8,44.7,13.1 M49,17.3c-9.2,11.8-16.6,25-23.2,38.4C17.6,73,10.1,91,7,110.1
		c-1.1,5.3-1.2,10.7-0.6,16.1c0.6,5,2.6,10.4,7.3,13.1c4.4,2.6,10.1,1.6,14.2-1.3c7.2-5,12-12.7,16.2-20.3c8.9-17,14.7-35.4,19.1-54
		c4.7,19,10.6,38,19.9,55.3c3.7,6.4,7.6,13.1,13.7,17.5c3,2.7,7.1,4.7,11.3,4.2c4.7-0.5,8.6-3.5,11.9-6.6c5.6-5.8,9.7-12.8,13.3-20
		c7.7-15.7,13-32.5,17.1-49.5c5.2,20.5,11.6,41.1,22.6,59.3c4.1,6.4,9,13,16.3,16c5.1,2.1,11.6,0.3,14.5-4.5
		c3.5-5.7,3.8-12.8,3.3-19.3c-0.7-10.5-3.8-20.7-7.2-30.6c-6.7-19.2-15.5-37.7-26.3-54.9c-5-7.7-10.2-15.5-17.1-21.5
		c-2.5-2.2-6.1-4.2-9.2-2.1c-6,3.6-10.2,9.5-14.3,15c-10.2,14.5-18.6,30.4-25.5,46.7c-0.2,0.3-0.6,0.7-0.8,1c-0.6-1.9-1.2-3.7-2-5.5
		c-7.1-15.3-15-30.3-25-44c-3.4-4.5-6.9-9.1-11.6-12.4c-2-1.4-4.6-2.6-7-1.4C55.9,8.7,52.4,13.1,49,17.3"/>
	<path class="st2" d="M49,17.3c3.4-4.1,6.9-8.6,11.9-10.9c2.4-1.2,5,0,7,1.4c4.6,3.3,8.1,7.9,11.6,12.4c10,13.6,17.9,28.7,25,44
		c0.8,1.8,1.4,3.6,2,5.5c-9.2-15.7-17.6-31.9-29.2-46.1c-3.4-4-6.9-8.2-11.8-10.3c-2.8-1.2-5.6,0.4-7.9,1.9
		c-8.3,6.9-14.4,16-20.2,25C23.9,61.8,13.7,85.5,7,110.1C10.1,91,17.6,73,25.8,55.7C32.4,42.2,39.8,29.1,49,17.3"/>
	<path class="st2" d="M147.1,6.9c3.1-2.2,6.8-0.1,9.2,2.1c7,6.1,12.1,13.8,17.1,21.5c10.8,17.3,19.6,35.7,26.3,54.9
		c3.4,9.9,6.4,20.1,7.2,30.6c-1.2-7.3-3-14.5-5.5-21.5C195,75.4,186.3,57,175.5,39.9c-4.7-7.3-9.6-14.6-15.7-20.9
		c-2.4-2.4-5-4.9-8.3-6c-2.6-0.8-4.9,1-7,2.3c-5.6,4.4-9.9,10-14,15.7c-7.3,10.4-13.8,21.3-19.8,32.5c-1,1.8-2.2,3.5-3.5,5
		c6.9-16.4,15.3-32.2,25.5-46.7C137,16.4,141.1,10.5,147.1,6.9"/>
	<path class="st3" d="M57.7,15.1c2.3-1.5,5.1-3.1,7.9-1.9c4.9,2.1,8.4,6.3,11.8,10.3c11.5,14.1,20,30.4,29.2,46.1
		c-5.8,16.4-12.6,32.8-13,50.4c-0.3,5.7,1.2,11.2,3.3,16.4c-6.1-4.4-10-11.1-13.7-17.5c-9.3-17.3-15.2-36.3-19.9-55.3
		C59.7,47.7,56.6,31.5,57.7,15.1"/>
	<path class="st4" d="M144.6,15.4c2.1-1.3,4.4-3.1,7-2.3c3.3,1.1,5.9,3.6,8.3,6c6,6.3,11,13.5,15.7,20.9
		C186.3,57,195,75.4,201.4,94.6c2.5,7,4.4,14.2,5.5,21.5c0.5,6.5,0.3,13.6-3.3,19.3c-2.9,4.8-9.4,6.6-14.5,4.5
		c-7.3-3-12.1-9.6-16.3-16c-11-18.2-17.4-38.8-22.6-59.3C146.7,48.4,143.5,32,144.6,15.4"/>
	<path class="st4" d="M37.5,40.1c5.8-9,11.9-18.1,20.2-25c-1.1,16.3,2.1,32.6,5.5,48.5c-4.4,18.6-10.2,37-19.1,54
		c-4.1,7.6-8.9,15.3-16.1,20.3c-4,2.9-9.7,3.9-14.2,1.3c-4.6-2.6-6.6-8-7.3-13.1c-0.6-5.3-0.5-10.8,0.6-16.1
		C13.7,85.5,23.9,61.8,37.5,40.1"/>
	<path class="st5" d="M130.5,31.1c4.1-5.7,8.5-11.3,14-15.7c-1.1,16.6,2.2,33.1,5.7,49.2c-4.1,17-9.5,33.7-17.1,49.5
		c-3.6,7.1-7.7,14.2-13.3,20c-3.2,3.2-7.2,6.2-11.9,6.6c-4.2,0.5-8.2-1.5-11.3-4.2c-2.1-5.2-3.6-10.7-3.3-16.4
		c0.4-17.6,7.2-34.1,13-50.4c0.2-0.3,0.6-0.7,0.8-1c1.3-1.5,2.5-3.2,3.5-5C116.7,52.4,123.2,41.5,130.5,31.1"/>
</g>
</svg>
