<svg width="16" height="20" viewBox="0 0 16 20" fill="none" xmlns="http://www.w3.org/2000/svg">
    <path d="M8.00012 10C6.90012 10 6.00012 9.1 6.00012 8C6.00012 6.9 6.90012 6 8.00012 6C9.10012 6 10.0001 6.9 10.0001 8C10.0001 9.1 9.10012 10 8.00012 10ZM14.0001 8.2C14.0001 4.57 11.3501 2 8.00012 2C4.65012 2 2.00012 4.57 2.00012 8.2C2.00012 10.54 3.95012 13.64 8.00012 17.34C12.0501 13.64 14.0001 10.54 14.0001 8.2ZM8.00012 0C12.2001 0 16.0001 3.22 16.0001 8.2C16.0001 11.52 13.3301 15.45 8.00012 20C2.67012 15.45 0.00012207 11.52 0.00012207 8.2C0.00012207 3.22 3.80012 0 8.00012 0Z" fill="#B2B2B2"/>
</svg>
